PathFileType	4	(X/Y/Z)	60_2_110_p1_0-205_filt_butterworth.trc
DataRate	CameraRate	NumFrames	NumMarkers	Units	OrigDataRate	OrigDataStartFrame	OrigNumFrames
50.0	50.0	4	27	m	50.0	0	205
Frame#	Time	RHip			RKnee			RAnkle			RBigToe			RSmallToe			RHeel			LHip			LKnee			LAnkle			LBigToe			LSmallToe			LHeel			Neck			Head			Nose			RShoulder			RElbow			RWrist			RThumb			RIndex			RPinky			LShoulder			LElbow			LWrist			LThumb			LIndex			LPinky			
		X1	Y1	Z1	X2	Y2	Z2	X3	Y3	Z3	X4	Y4	Z4	X5	Y5	Z5	X6	Y6	Z6	X7	Y7	Z7	X8	Y8	Z8	X9	Y9	Z9	X10	Y10	Z10	X11	Y11	Z11	X12	Y12	Z12	X13	Y13	Z13	X14	Y14	Z14	X15	Y15	Z15	X16	Y16	Z16	X17	Y17	Z17	X18	Y18	Z18	X19	Y19	Z19	X20	Y20	Z20	X21	Y21	Z21	X22	Y22	Z22	X23	Y23	Z23	X24	Y24	Z24	X25	Y25	Z25	X26	Y26	Z26	X27	Y27	Z27	
0	0.0	0.31863769236374817	0.5218694223115652	0.7811659558173265	0.29925262708936495	0.0864606627005377	0.7769544582757263	0.2788175626522994	-0.34423312177645615	0.8063840516700668	0.2822388041575243	-0.34845546037101094	0.5434383621445745	0.340998756408225	-0.3568353581865641	0.5854040612627773	0.26791209701574026	-0.38093045434267364	0.8098819206870285	0.10328246223474832	0.5169511859903989	0.792996073573003	0.10746996424341607	0.09380963196888964	0.7712757920876815	0.12513752698882996	-0.3060522816817415	0.7421311730572917	0.10875576606717162	-0.3493221560299222	0.560019091770427	0.06270008706636682	-0.35285731429351713	0.603750311150692	0.14295166004045715	-0.3683713537316081	0.7909151085265353	0.2177398179523804	1.0914890449294343	0.8106177807264405	0.22478338219647237	1.357075225653148	0.7371530188885526	0.21264436781001708	1.220740038576153	0.6896830830512194	0.3683573456789509	1.021533909188589	0.7894890799629144	0.42787097553147824	0.740615450387339	0.8161661981812913	0.2774934181901113	0.6853801504611509	0.5836345499484735	0.15317144735625435	0.6565652241883938	0.5226079285487817	0.1538367998078512	0.6432150471811718	0.5336721725746556	0.19496692574969754	0.5959159999991934	0.551459428397201	0.05444715727514142	1.0266632583455644	0.7846729494274151	-0.0018849080991946306	0.7443620331719314	0.8047909216856385	0.1374515964309868	0.6876833809936149	0.5905074128967817	0.2076209147576333	0.6373794172208105	0.5609613284036001	0.21527751910289275	0.6154268445967829	0.5674088473681057	0.19163264444519845	0.60475533894219	0.5591463054327743	
1	0.02	0.31965251417965035	0.5208338979935521	0.7838579745640992	0.29844456359595745	0.08611557218142124	0.7770646272905404	0.27880494672449846	-0.3441903749233129	0.8064297048921933	0.2829261012397668	-0.34732222386098704	0.5452685341202627	0.33806575101877173	-0.35933431634475826	0.5913239628260304	0.2677215613302165	-0.37964237683145347	0.8096135538736472	0.10352126780753691	0.517378605292563	0.7931483164574022	0.10725086130113763	0.09264649380628259	0.7711067494202192	0.12530869555573476	-0.30635903707985973	0.7420664040624939	0.10969059250103917	-0.35426266661326655	0.5675307063191783	0.06057143921192096	-0.3516754215100939	0.6026980472849942	0.1436134025385713	-0.37068113103847405	0.7929809652142916	0.21787019992780843	1.08871942360525	0.8106349797258965	0.22425330982343827	1.3570441191134974	0.7371508479151354	0.212862807063822	1.2222254033382116	0.6899258728720647	0.36837851667094296	1.021552421436152	0.7896633308282396	0.42809863409800525	0.7439592713856409	0.8173321270889382	0.2776207587981077	0.6859773063364834	0.584559037439832	0.1573879145470153	0.6504720716549961	0.5313856813099246	0.16016707992670356	0.6440260871689961	0.5331329716030396	0.19588717364023675	0.60125095492259	0.5561077880478755	0.05601018485127451	1.0265011377969355	0.786628937231729	-0.0019420231065183284	0.7443072664530307	0.8047869740762774	0.13420805828477866	0.6899747547694539	0.5909995795924989	0.21057675681124152	0.635712715780163	0.5587359274904783	0.21386610277865234	0.6211819842595213	0.5630111032299698	0.1902375922521682	0.607269520227499	0.5602010534739263	
2	0.04	0.3204920620071972	0.519800299431356	0.7860814274485454	0.29784055481342625	0.08570092570831522	0.777193992224556	0.2787938631760006	-0.34415896300443527	0.8064683185810261	0.2836612374780688	-0.3470117456808416	0.5475709086005799	0.3364377360046167	-0.361286495470876	0.5961348108238335	0.2675088886922637	-0.3784137330073074	0.8092503910593232	0.10364423693792904	0.5176544591572798	0.7932222323671017	0.10708686034897306	0.09170024825947365	0.7709651076525781	0.12542605889158986	-0.30660506319204295	0.7420191193319957	0.11083042303553603	-0.35667705580863857	0.5706071057896154	0.05922023779838183	-0.3510091101855066	0.6020164738762265	0.14408100398351353	-0.3723377755729277	0.7943524576804093	0.2179171680113944	1.0876861115289052	0.8106667690977145	0.2241835399276287	1.3570314433721895	0.73715381942677	0.21258906468351066	1.2232771076327253	0.6899558147454811	0.3683935540480959	1.0215730377437384	0.7897828416065645	0.42812128034404007	0.7462327732749512	0.8176124336667885	0.2776016833790116	0.686211133526307	0.5847124610916354	0.16148344713528967	0.6464025071917212	0.5374447236533431	0.16501578669215103	0.6440196019254918	0.534147118955256	0.19666507448854587	0.6046254209764099	0.5598732802347954	0.057492271680300834	1.0267553433176044	0.7865639133144692	-0.0019813687264784484	0.744292671701766	0.8047528215139873	0.13304657512598642	0.691778436405182	0.5900548154812203	0.21293891249406086	0.6352785044975513	0.5580010103915658	0.2138383905228974	0.6251816377181111	0.5602148466164529	0.1904499844450008	0.6094907327631598	0.5618491031079308	
3	0.06	0.3211701230142229	0.5187754041930666	0.7878728693152227	0.2974213087155025	0.08523236974977899	0.7773301796189807	0.2787842320033687	-0.34413781388690623	0.8065004108089259	0.2843944357623827	-0.34731591896260244	0.5501186816448703	0.3358560953148878	-0.3627885035285389	0.5999839987125416	0.26728025486129525	-0.3772528937915327	0.8088139089703403	0.10366289336684989	0.5177955337912107	0.7932262732807625	0.10697308495854368	0.09095561376967787	0.7708491664989935	0.1254951492589946	-0.3067960382014698	0.7419877334716983	0.11208315051120087	-0.35712784991127977	0.5702732822741946	0.058496642633862915	-0.35075037896691325	0.601634962520832	0.14437457498403694	-0.37340778495475724	0.7951043495608138	0.2179006275171616	1.0879918335301197	0.8107083482925399	0.2244019698591541	1.3570331436221656	0.7371604786951511	0.2119589654109751	1.2239642700879454	0.6898282517888894	0.36840381457835963	1.021593932945069	0.7898561216021667	0.4280209943613128	0.74759349331809	0.8173205607866325	0.27751134297833074	0.6861704306899921	0.5843765365206592	0.1653297361426368	0.6440445778172865	0.5412494857379333	0.1685964744512115	0.6434095916784297	0.5362789041966758	0.19730432196215544	0.6064190558539815	0.5628232985691337	0.05886127942629098	1.027301663518029	0.7849981417351626	-0.002005407066525615	0.7443094370837133	0.804695941528848	0.13348497644151483	0.6931747556478577	0.5880880055090341	0.21482846924358773	0.635846774665332	0.5583081497944221	0.21491899455015082	0.6278026957569273	0.5585378875412825	0.19186370591328833	0.6113694168795281	0.5639766930374384	
